ffmpeg started on 2026-01-13 at 09:42:10
Report written to "D:\Convert\FFMetrics\reports\psnr_report-6.txt"
Log level: 32
Command line:
ffmpeg -hide_banner -nostdin -r 24000/1001 -i "F:\\Convert\\files\\[DC] Make Heroine ga Oosugiru - 07_Telegram_HEVC(104).mkv" -r 24000/1001 -i "F:\\Convert\\files\\[DC] Make Heroine ga Oosugiru - 07_Telegram.mp4" -lavfi "[0:v]settb=AVTB,setpts=PTS-STARTPTS,format=pix_fmts=yuv420p10le,fps=24000/1001,scale=1920:1080:flags=lanczos:param0=3:out_range=limited:out_color_matrix=bt709:out_chroma_loc=left,setsar=1/1,setdar=(1920/1080)*(1/1),colorspace=format=yuv420p10:range=tv:primaries=bt709:trc=bt709:space=bt709:fast=0[main];[1:v]settb=AVTB,setpts=PTS-STARTPTS,format=pix_fmts=yuv420p,fps=24000/1001,scale=1920:1080:flags=lanczos:param0=3:out_range=limited:out_color_matrix=bt709:out_chroma_loc=left,setsar=1.000,setdar=1.778,colorspace=format=yuv420p:range=tv:primaries=bt709:trc=bt709:space=bt709:fast=0[ref];[main][ref]psnr=eof_action=endall:stats_file='D\\:/Convert/FFMetrics/logs/psnr_logfile-6.txt'" -f null -
Input #0, matroska,webm, from 'F:\Convert\files\[DC] Make Heroine ga Oosugiru - 07_Telegram_HEVC(104).mkv':
  Metadata:
    COMPATIBLE_BRANDS: isomiso2avc1mp41
    MAJOR_BRAND     : isom
    MINOR_VERSION   : 512
    ENCODER         : Lavf61.7.100
  Duration: 00:24:06.79, start: -0.021000, bitrate: 970 kb/s
  Stream #0:0: Video: hevc (Main 10), yuv420p10le(tv, bt709, progressive), 1920x1080 [SAR 1:1 DAR 16:9], 23.98 fps, 23.98 tbr, 1k tbn (default)
      Metadata:
        HANDLER_NAME    : VideoHandler
        VENDOR_ID       : [0][0][0][0]
        ENCODER         : Lavc61.19.100 libx265
        BPS             : 772894
        DURATION        : 00:24:06.569708333
        NUMBER_OF_FRAMES: 34683
        NUMBER_OF_BYTES : 139755660
        _STATISTICS_WRITING_APP: mkvpropedit v94.0 ('Initiate') 64-bit
        _STATISTICS_WRITING_DATE_UTC: 2026-01-12 12:06:51
        _STATISTICS_TAGS: BPS DURATION NUMBER_OF_FRAMES NUMBER_OF_BYTES
  Stream #0:1: Audio: aac (LC), 48000 Hz, stereo, fltp (default)
      Metadata:
        HANDLER_NAME    : SoundHandler
        VENDOR_ID       : [0][0][0][0]
        ENCODER         : Lavc61.19.100 aac
        BPS             : 193194
        DURATION        : 00:24:06.784000000
        NUMBER_OF_FRAMES: 67819
        NUMBER_OF_BYTES : 34938755
        _STATISTICS_WRITING_APP: mkvpropedit v94.0 ('Initiate') 64-bit
        _STATISTICS_WRITING_DATE_UTC: 2026-01-12 12:06:51
        _STATISTICS_TAGS: BPS DURATION NUMBER_OF_FRAMES NUMBER_OF_BYTES
Input #1, mov,mp4,m4a,3gp,3g2,mj2, from 'F:\Convert\files\[DC] Make Heroine ga Oosugiru - 07_Telegram.mp4':
  Metadata:
    major_brand     : isom
    minor_version   : 512
    compatible_brands: isomiso2avc1mp41
    encoder         : Lavf60.16.100
  Duration: 00:24:06.74, start: 0.000000, bitrate: 3764 kb/s
  Stream #1:0[0x1](und): Video: h264 (High) (avc1 / 0x31637661), yuv420p(tv, bt709, progressive), 1920x1080 [SAR 1:1 DAR 16:9], 3616 kb/s, 23.98 fps, 23.98 tbr, 24k tbn (default)
      Metadata:
        handler_name    : VideoHandler
        vendor_id       : [0][0][0][0]
        encoder         : Lavc60.31.102 h264_qsv
  Stream #1:1[0x2](und): Audio: aac (HE-AACv2) (mp4a / 0x6134706D), 48000 Hz, stereo, fltp, 144 kb/s (default)
      Metadata:
        handler_name    : SoundHandler
        vendor_id       : [0][0][0][0]
Stream mapping:
  Stream #0:0 (hevc) -> settb:default
  Stream #1:0 (h264) -> settb:default
  psnr:default -> Stream #0:0 (wrapped_avframe)
  Stream #0:1 -> #0:1 (aac (native) -> pcm_s16le (native))
Output #0, null, to 'pipe:':
  Metadata:
    COMPATIBLE_BRANDS: isomiso2avc1mp41
    MAJOR_BRAND     : isom
    MINOR_VERSION   : 512
    encoder         : Lavf61.7.100
  Stream #0:0: Video: wrapped_avframe, yuv420p10le(tv, bt709, progressive), 1920x1080 [SAR 1:1 DAR 16:9], q=2-31, 200 kb/s, 23.98 fps, 23.98 tbn
      Metadata:
        encoder         : Lavc61.19.100 wrapped_avframe
  Stream #0:1: Audio: pcm_s16le, 48000 Hz, stereo, s16, 1536 kb/s (default)
      Metadata:
        HANDLER_NAME    : SoundHandler
        VENDOR_ID       : [0][0][0][0]
        _STATISTICS_TAGS: BPS DURATION NUMBER_OF_FRAMES NUMBER_OF_BYTES
        BPS             : 193194
        DURATION        : 00:24:06.784000000
        NUMBER_OF_FRAMES: 67819
        NUMBER_OF_BYTES : 34938755
        _STATISTICS_WRITING_APP: mkvpropedit v94.0 ('Initiate') 64-bit
        _STATISTICS_WRITING_DATE_UTC: 2026-01-12 12:06:51
        encoder         : Lavc61.19.100 pcm_s16le
frame=  106 fps=0.0 q=-0.0 size=N/A time=00:00:04.42 bitrate=N/A speed=8.68x    frame=  269 fps=264 q=-0.0 size=N/A time=00:00:11.21 bitrate=N/A speed=  11x    frame=  439 fps=284 q=-0.0 size=N/A time=00:00:18.30 bitrate=N/A speed=11.8x    frame=  622 fps=302 q=-0.0 size=N/A time=00:00:25.94 bitrate=N/A speed=12.6x    frame=  818 fps=318 q=-0.0 size=N/A time=00:00:34.11 bitrate=N/A speed=13.3x    frame=  971 fps=315 q=-0.0 size=N/A time=00:00:40.49 bitrate=N/A speed=13.1x    frame= 1135 fps=314 q=-0.0 size=N/A time=00:00:47.33 bitrate=N/A speed=13.1x    frame= 1278 fps=310 q=-0.0 size=N/A time=00:00:53.30 bitrate=N/A speed=12.9x    frame= 1427 fps=308 q=-0.0 size=N/A time=00:00:59.51 bitrate=N/A speed=12.8x    frame= 1557 fps=303 q=-0.0 size=N/A time=00:01:04.93 bitrate=N/A speed=12.6x    frame= 1702 fps=300 q=-0.0 size=N/A time=00:01:10.98 bitrate=N/A speed=12.5x    frame= 1863 fps=300 q=-0.0 size=N/A time=00:01:17.70 bitrate=N/A speed=12.5x    frame= 2034 fps=303 q=-0.0 size=N/A time=00:01:24.83 bitrate=N/A speed=12.6x    frame= 2137 fps=296 q=-0.0 size=N/A time=00:01:29.13 bitrate=N/A speed=12.3x    frame= 2301 fps=297 q=-0.0 size=N/A time=00:01:35.97 bitrate=N/A speed=12.4x    frame= 2436 fps=295 q=-0.0 size=N/A time=00:01:41.60 bitrate=N/A speed=12.3x    frame= 2560 fps=292 q=-0.0 size=N/A time=00:01:46.77 bitrate=N/A speed=12.2x    frame= 2718 fps=293 q=-0.0 size=N/A time=00:01:53.36 bitrate=N/A speed=12.2x    frame= 2887 fps=294 q=-0.0 size=N/A time=00:02:00.41 bitrate=N/A speed=12.3x    frame= 3072 fps=298 q=-0.0 size=N/A time=00:02:08.12 bitrate=N/A speed=12.4x    frame= 3286 fps=303 q=-0.0 size=N/A time=00:02:17.05 bitrate=N/A speed=12.6x    frame= 3480 fps=307 q=-0.0 size=N/A time=00:02:25.14 bitrate=N/A speed=12.8x    frame= 3690 fps=311 q=-0.0 size=N/A time=00:02:33.90 bitrate=N/A speed=  13x    frame= 3889 fps=314 q=-0.0 size=N/A time=00:02:42.20 bitrate=N/A speed=13.1x    frame= 4093 fps=317 q=-0.0 size=N/A time=00:02:50.71 bitrate=N/A speed=13.2x    frame= 4295 fps=320 q=-0.0 size=N/A time=00:02:59.13 bitrate=N/A speed=13.3x    frame= 4498 fps=323 q=-0.0 size=N/A time=00:03:07.60 bitrate=N/A speed=13.5x    frame= 4695 fps=325 q=-0.0 size=N/A time=00:03:15.82 bitrate=N/A speed=13.6x    frame= 4888 fps=327 q=-0.0 size=N/A time=00:03:23.87 bitrate=N/A speed=13.6x    frame= 5059 fps=327 q=-0.0 size=N/A time=00:03:31.00 bitrate=N/A speed=13.6x    frame= 5231 fps=327 q=-0.0 size=N/A time=00:03:38.17 bitrate=N/A speed=13.6x    frame= 5407 fps=328 q=-0.0 size=N/A time=00:03:45.51 bitrate=N/A speed=13.7x    frame= 5595 fps=329 q=-0.0 size=N/A time=00:03:53.35 bitrate=N/A speed=13.7x    frame= 5782 fps=330 q=-0.0 size=N/A time=00:04:01.15 bitrate=N/A speed=13.7x    frame= 5981 fps=331 q=-0.0 size=N/A time=00:04:09.45 bitrate=N/A speed=13.8x    frame= 6173 fps=332 q=-0.0 size=N/A time=00:04:17.46 bitrate=N/A speed=13.9x    frame= 6362 fps=333 q=-0.0 size=N/A time=00:04:25.34 bitrate=N/A speed=13.9x    frame= 6552 fps=334 q=-0.0 size=N/A time=00:04:33.27 bitrate=N/A speed=13.9x    frame= 6747 fps=335 q=-0.0 size=N/A time=00:04:41.40 bitrate=N/A speed=  14x    frame= 6939 fps=336 q=-0.0 size=N/A time=00:04:49.41 bitrate=N/A speed=  14x    frame= 7111 fps=336 q=-0.0 size=N/A time=00:04:56.58 bitrate=N/A speed=  14x    frame= 7290 fps=337 q=-0.0 size=N/A time=00:05:04.05 bitrate=N/A speed=  14x    frame= 7479 fps=337 q=-0.0 size=N/A time=00:05:11.93 bitrate=N/A speed=14.1x    frame= 7651 fps=337 q=-0.0 size=N/A time=00:05:19.11 bitrate=N/A speed=14.1x    frame= 7819 fps=337 q=-0.0 size=N/A time=00:05:26.11 bitrate=N/A speed=14.1x    frame= 8002 fps=337 q=-0.0 size=N/A time=00:05:33.75 bitrate=N/A speed=14.1x    frame= 8187 fps=338 q=-0.0 size=N/A time=00:05:41.46 bitrate=N/A speed=14.1x    frame= 8378 fps=338 q=-0.0 size=N/A time=00:05:49.43 bitrate=N/A speed=14.1x    frame= 8566 fps=339 q=-0.0 size=N/A time=00:05:57.27 bitrate=N/A speed=14.1x    frame= 8747 fps=339 q=-0.0 size=N/A time=00:06:04.82 bitrate=N/A speed=14.1x    frame= 8938 fps=340 q=-0.0 size=N/A time=00:06:12.78 bitrate=N/A speed=14.2x    frame= 9129 fps=340 q=-0.0 size=N/A time=00:06:20.75 bitrate=N/A speed=14.2x    frame= 9318 fps=341 q=-0.0 size=N/A time=00:06:28.63 bitrate=N/A speed=14.2x    frame= 9508 fps=341 q=-0.0 size=N/A time=00:06:36.56 bitrate=N/A speed=14.2x    frame= 9714 fps=342 q=-0.0 size=N/A time=00:06:45.15 bitrate=N/A speed=14.3x    frame= 9898 fps=343 q=-0.0 size=N/A time=00:06:52.82 bitrate=N/A speed=14.3x    frame=10089 fps=343 q=-0.0 size=N/A time=00:07:00.79 bitrate=N/A speed=14.3x    frame=10274 fps=343 q=-0.0 size=N/A time=00:07:08.51 bitrate=N/A speed=14.3x    frame=10469 fps=344 q=-0.0 size=N/A time=00:07:16.64 bitrate=N/A speed=14.3x    frame=10647 fps=344 q=-0.0 size=N/A time=00:07:24.06 bitrate=N/A speed=14.4x    frame=10836 fps=344 q=-0.0 size=N/A time=00:07:31.95 bitrate=N/A speed=14.4x    frame=11018 fps=345 q=-0.0 size=N/A time=00:07:39.54 bitrate=N/A speed=14.4x    frame=11199 fps=345 q=-0.0 size=N/A time=00:07:47.09 bitrate=N/A speed=14.4x    frame=11388 fps=345 q=-0.0 size=N/A time=00:07:54.97 bitrate=N/A speed=14.4x    frame=11602 fps=346 q=-0.0 size=N/A time=00:08:03.90 bitrate=N/A speed=14.4x    frame=11798 fps=347 q=-0.0 size=N/A time=00:08:12.07 bitrate=N/A speed=14.5x    frame=11997 fps=347 q=-0.0 size=N/A time=00:08:20.37 bitrate=N/A speed=14.5x    frame=12196 fps=348 q=-0.0 size=N/A time=00:08:28.67 bitrate=N/A speed=14.5x    frame=12392 fps=348 q=-0.0 size=N/A time=00:08:36.84 bitrate=N/A speed=14.5x    frame=12581 fps=349 q=-0.0 size=N/A time=00:08:44.73 bitrate=N/A speed=14.5x    frame=12770 fps=349 q=-0.0 size=N/A time=00:08:52.61 bitrate=N/A speed=14.5x    frame=12947 fps=349 q=-0.0 size=N/A time=00:08:59.99 bitrate=N/A speed=14.5x    frame=13120 fps=349 q=-0.0 size=N/A time=00:09:07.21 bitrate=N/A speed=14.5x    frame=13307 fps=349 q=-0.0 size=N/A time=00:09:15.01 bitrate=N/A speed=14.5x    frame=13493 fps=349 q=-0.0 size=N/A time=00:09:22.77 bitrate=N/A speed=14.5x    frame=13696 fps=349 q=-0.0 size=N/A time=00:09:31.23 bitrate=N/A speed=14.6x    frame=13899 fps=350 q=-0.0 size=N/A time=00:09:39.70 bitrate=N/A speed=14.6x    frame=14068 fps=350 q=-0.0 size=N/A time=00:09:46.75 bitrate=N/A speed=14.6x    frame=14242 fps=350 q=-0.0 size=N/A time=00:09:54.01 bitrate=N/A speed=14.6x    frame=14417 fps=349 q=-0.0 size=N/A time=00:10:01.30 bitrate=N/A speed=14.6x    frame=14604 fps=350 q=-0.0 size=N/A time=00:10:09.10 bitrate=N/A speed=14.6x    frame=14793 fps=350 q=-0.0 size=N/A time=00:10:16.99 bitrate=N/A speed=14.6x    frame=14953 fps=349 q=-0.0 size=N/A time=00:10:23.66 bitrate=N/A speed=14.6x    frame=15108 fps=349 q=-0.0 size=N/A time=00:10:30.12 bitrate=N/A speed=14.5x    frame=15269 fps=348 q=-0.0 size=N/A time=00:10:36.84 bitrate=N/A speed=14.5x    frame=15422 fps=348 q=-0.0 size=N/A time=00:10:43.22 bitrate=N/A speed=14.5x    frame=15608 fps=348 q=-0.0 size=N/A time=00:10:50.98 bitrate=N/A speed=14.5x    frame=15786 fps=348 q=-0.0 size=N/A time=00:10:58.40 bitrate=N/A speed=14.5x    frame=15973 fps=348 q=-0.0 size=N/A time=00:11:06.20 bitrate=N/A speed=14.5x    frame=16137 fps=348 q=-0.0 size=N/A time=00:11:13.04 bitrate=N/A speed=14.5x    frame=16311 fps=348 q=-0.0 size=N/A time=00:11:20.30 bitrate=N/A speed=14.5x    frame=16499 fps=348 q=-0.0 size=N/A time=00:11:28.14 bitrate=N/A speed=14.5x    frame=16694 fps=348 q=-0.0 size=N/A time=00:11:36.27 bitrate=N/A speed=14.5x    frame=16891 fps=348 q=-0.0 size=N/A time=00:11:44.49 bitrate=N/A speed=14.5x    frame=17090 fps=349 q=-0.0 size=N/A time=00:11:52.79 bitrate=N/A speed=14.5x    frame=17277 fps=349 q=-0.0 size=N/A time=00:12:00.59 bitrate=N/A speed=14.5x    frame=17457 fps=349 q=-0.0 size=N/A time=00:12:08.10 bitrate=N/A speed=14.6x    frame=17634 fps=349 q=-0.0 size=N/A time=00:12:15.48 bitrate=N/A speed=14.5x    frame=17810 fps=349 q=-0.0 size=N/A time=00:12:22.82 bitrate=N/A speed=14.5x    frame=17994 fps=349 q=-0.0 size=N/A time=00:12:30.49 bitrate=N/A speed=14.5x    frame=18166 fps=349 q=-0.0 size=N/A time=00:12:37.67 bitrate=N/A speed=14.5x    frame=18350 fps=349 q=-0.0 size=N/A time=00:12:45.34 bitrate=N/A speed=14.5x    frame=18525 fps=349 q=-0.0 size=N/A time=00:12:52.64 bitrate=N/A speed=14.5x    frame=18731 fps=349 q=-0.0 size=N/A time=00:13:01.23 bitrate=N/A speed=14.6x    frame=18930 fps=349 q=-0.0 size=N/A time=00:13:09.53 bitrate=N/A speed=14.6x    frame=19131 fps=350 q=-0.0 size=N/A time=00:13:17.92 bitrate=N/A speed=14.6x    frame=19328 fps=350 q=-0.0 size=N/A time=00:13:26.13 bitrate=N/A speed=14.6x    frame=19523 fps=350 q=-0.0 size=N/A time=00:13:34.27 bitrate=N/A speed=14.6x    frame=19708 fps=351 q=-0.0 size=N/A time=00:13:41.98 bitrate=N/A speed=14.6x    frame=19902 fps=351 q=-0.0 size=N/A time=00:13:50.07 bitrate=N/A speed=14.6x    frame=20111 fps=351 q=-0.0 size=N/A time=00:13:58.79 bitrate=N/A speed=14.6x    frame=20306 fps=351 q=-0.0 size=N/A time=00:14:06.92 bitrate=N/A speed=14.7x    frame=20487 fps=351 q=-0.0 size=N/A time=00:14:14.47 bitrate=N/A speed=14.7x    frame=20668 fps=351 q=-0.0 size=N/A time=00:14:22.02 bitrate=N/A speed=14.7x    frame=20870 fps=352 q=-0.0 size=N/A time=00:14:30.45 bitrate=N/A speed=14.7x    frame=21065 fps=352 q=-0.0 size=N/A time=00:14:38.58 bitrate=N/A speed=14.7x    frame=21260 fps=352 q=-0.0 size=N/A time=00:14:46.71 bitrate=N/A speed=14.7x    frame=21456 fps=352 q=-0.0 size=N/A time=00:14:54.89 bitrate=N/A speed=14.7x    frame=21648 fps=353 q=-0.0 size=N/A time=00:15:02.90 bitrate=N/A speed=14.7x    frame=21848 fps=353 q=-0.0 size=N/A time=00:15:11.24 bitrate=N/A speed=14.7x    frame=22039 fps=353 q=-0.0 size=N/A time=00:15:19.20 bitrate=N/A speed=14.7x    frame=22235 fps=353 q=-0.0 size=N/A time=00:15:27.38 bitrate=N/A speed=14.7x    frame=22438 fps=354 q=-0.0 size=N/A time=00:15:35.85 bitrate=N/A speed=14.7x    frame=22634 fps=354 q=-0.0 size=N/A time=00:15:44.02 bitrate=N/A speed=14.8x    frame=22819 fps=354 q=-0.0 size=N/A time=00:15:51.74 bitrate=N/A speed=14.8x    frame=23019 fps=354 q=-0.0 size=N/A time=00:16:00.08 bitrate=N/A speed=14.8x    frame=23214 fps=354 q=-0.0 size=N/A time=00:16:08.21 bitrate=N/A speed=14.8x    frame=23405 fps=355 q=-0.0 size=N/A time=00:16:16.18 bitrate=N/A speed=14.8x    frame=23607 fps=355 q=-0.0 size=N/A time=00:16:24.60 bitrate=N/A speed=14.8x    frame=23792 fps=355 q=-0.0 size=N/A time=00:16:32.32 bitrate=N/A speed=14.8x    frame=23977 fps=355 q=-0.0 size=N/A time=00:16:40.04 bitrate=N/A speed=14.8x    frame=24157 fps=355 q=-0.0 size=N/A time=00:16:47.54 bitrate=N/A speed=14.8x    frame=24328 fps=355 q=-0.0 size=N/A time=00:16:54.68 bitrate=N/A speed=14.8x    frame=24502 fps=355 q=-0.0 size=N/A time=00:17:01.93 bitrate=N/A speed=14.8x    frame=24691 fps=355 q=-0.0 size=N/A time=00:17:09.82 bitrate=N/A speed=14.8x    frame=24885 fps=355 q=-0.0 size=N/A time=00:17:17.91 bitrate=N/A speed=14.8x    frame=25078 fps=355 q=-0.0 size=N/A time=00:17:25.96 bitrate=N/A speed=14.8x    frame=25279 fps=355 q=-0.0 size=N/A time=00:17:34.34 bitrate=N/A speed=14.8x    frame=25450 fps=355 q=-0.0 size=N/A time=00:17:41.47 bitrate=N/A speed=14.8x    frame=25624 fps=355 q=-0.0 size=N/A time=00:17:48.73 bitrate=N/A speed=14.8x    frame=25807 fps=355 q=-0.0 size=N/A time=00:17:56.36 bitrate=N/A speed=14.8x    frame=25989 fps=355 q=-0.0 size=N/A time=00:18:03.95 bitrate=N/A speed=14.8x    frame=26163 fps=355 q=-0.0 size=N/A time=00:18:11.21 bitrate=N/A speed=14.8x    frame=26348 fps=355 q=-0.0 size=N/A time=00:18:18.93 bitrate=N/A speed=14.8x    frame=26537 fps=355 q=-0.0 size=N/A time=00:18:26.81 bitrate=N/A speed=14.8x    frame=26729 fps=355 q=-0.0 size=N/A time=00:18:34.82 bitrate=N/A speed=14.8x    frame=26912 fps=355 q=-0.0 size=N/A time=00:18:42.45 bitrate=N/A speed=14.8x    frame=27082 fps=355 q=-0.0 size=N/A time=00:18:49.54 bitrate=N/A speed=14.8x    frame=27256 fps=355 q=-0.0 size=N/A time=00:18:56.80 bitrate=N/A speed=14.8x    frame=27437 fps=355 q=-0.0 size=N/A time=00:19:04.35 bitrate=N/A speed=14.8x    frame=27615 fps=355 q=-0.0 size=N/A time=00:19:11.77 bitrate=N/A speed=14.8x    frame=27788 fps=354 q=-0.0 size=N/A time=00:19:18.99 bitrate=N/A speed=14.8x    frame=27964 fps=354 q=-0.0 size=N/A time=00:19:26.33 bitrate=N/A speed=14.8x    frame=28149 fps=354 q=-0.0 size=N/A time=00:19:34.04 bitrate=N/A speed=14.8x    frame=28329 fps=354 q=-0.0 size=N/A time=00:19:41.55 bitrate=N/A speed=14.8x    frame=28504 fps=354 q=-0.0 size=N/A time=00:19:48.85 bitrate=N/A speed=14.8x    frame=28683 fps=354 q=-0.0 size=N/A time=00:19:56.32 bitrate=N/A speed=14.8x    frame=28846 fps=354 q=-0.0 size=N/A time=00:20:03.11 bitrate=N/A speed=14.8x    frame=28997 fps=354 q=-0.0 size=N/A time=00:20:09.41 bitrate=N/A speed=14.7x    frame=29161 fps=353 q=-0.0 size=N/A time=00:20:16.25 bitrate=N/A speed=14.7x    frame=29335 fps=353 q=-0.0 size=N/A time=00:20:23.51 bitrate=N/A speed=14.7x    frame=29501 fps=353 q=-0.0 size=N/A time=00:20:30.43 bitrate=N/A speed=14.7x    frame=29676 fps=353 q=-0.0 size=N/A time=00:20:37.73 bitrate=N/A speed=14.7x    frame=29840 fps=353 q=-0.0 size=N/A time=00:20:44.57 bitrate=N/A speed=14.7x    frame=29993 fps=352 q=-0.0 size=N/A time=00:20:50.95 bitrate=N/A speed=14.7x    frame=30156 fps=352 q=-0.0 size=N/A time=00:20:57.75 bitrate=N/A speed=14.7x    frame=30318 fps=352 q=-0.0 size=N/A time=00:21:04.51 bitrate=N/A speed=14.7x    frame=30497 fps=352 q=-0.0 size=N/A time=00:21:11.97 bitrate=N/A speed=14.7x    frame=30679 fps=352 q=-0.0 size=N/A time=00:21:19.56 bitrate=N/A speed=14.7x    frame=30886 fps=352 q=-0.0 size=N/A time=00:21:28.20 bitrate=N/A speed=14.7x    frame=31080 fps=352 q=-0.0 size=N/A time=00:21:36.29 bitrate=N/A speed=14.7x    frame=31268 fps=352 q=-0.0 size=N/A time=00:21:44.13 bitrate=N/A speed=14.7x    frame=31459 fps=353 q=-0.0 size=N/A time=00:21:52.10 bitrate=N/A speed=14.7x    frame=31666 fps=353 q=-0.0 size=N/A time=00:22:00.73 bitrate=N/A speed=14.7x    frame=31845 fps=353 q=-0.0 size=N/A time=00:22:08.20 bitrate=N/A speed=14.7x    frame=32038 fps=353 q=-0.0 size=N/A time=00:22:16.25 bitrate=N/A speed=14.7x    frame=32231 fps=353 q=-0.0 size=N/A time=00:22:24.30 bitrate=N/A speed=14.7x    frame=32430 fps=353 q=-0.0 size=N/A time=00:22:32.60 bitrate=N/A speed=14.7x    frame=32626 fps=353 q=-0.0 size=N/A time=00:22:40.77 bitrate=N/A speed=14.7x    frame=32760 fps=353 q=-0.0 size=N/A time=00:22:46.36 bitrate=N/A speed=14.7x    frame=32912 fps=353 q=-0.0 size=N/A time=00:22:52.70 bitrate=N/A speed=14.7x    frame=33082 fps=352 q=-0.0 size=N/A time=00:22:59.79 bitrate=N/A speed=14.7x    frame=33249 fps=352 q=-0.0 size=N/A time=00:23:06.76 bitrate=N/A speed=14.7x    frame=33395 fps=352 q=-0.0 size=N/A time=00:23:12.84 bitrate=N/A speed=14.7x    frame=33544 fps=352 q=-0.0 size=N/A time=00:23:19.06 bitrate=N/A speed=14.7x    frame=33693 fps=351 q=-0.0 size=N/A time=00:23:25.27 bitrate=N/A speed=14.6x    frame=33814 fps=351 q=-0.0 size=N/A time=00:23:30.32 bitrate=N/A speed=14.6x    frame=33938 fps=350 q=-0.0 size=N/A time=00:23:35.49 bitrate=N/A speed=14.6x    frame=34084 fps=350 q=-0.0 size=N/A time=00:23:41.58 bitrate=N/A speed=14.6x    frame=34241 fps=349 q=-0.0 size=N/A time=00:23:48.13 bitrate=N/A speed=14.6x    frame=34360 fps=349 q=-0.0 size=N/A time=00:23:53.09 bitrate=N/A speed=14.5x    frame=34497 fps=348 q=-0.0 size=N/A time=00:23:58.81 bitrate=N/A speed=14.5x    frame=34682 fps=348 q=-0.0 size=N/A time=00:24:06.52 bitrate=N/A speed=14.5x    [Parsed_psnr_16 @ 0000016f67e73a00] PSNR y:48.944171 u:50.329787 v:50.380559 average:49.365520 min:37.917766 max:inf
[out#0/null @ 0000016f5ad98a00] video:14903KiB audio:271276KiB subtitle:0KiB other streams:0KiB global headers:0KiB muxing overhead: unknown
frame=34683 fps=348 q=-0.0 Lsize=N/A time=00:24:06.57 bitrate=N/A speed=14.5x    
